<?xml version="1.0" standalone="no"?>
<!DOCTYPE svg PUBLIC "-//W3C//DTD SVG 20010904//EN"
 "http://www.w3.org/TR/2001/REC-SVG-20010904/DTD/svg10.dtd">
<svg version="1.0" xmlns="http://www.w3.org/2000/svg"
 width="260.000000pt" height="260.000000pt" viewBox="0 0 260.000000 260.000000"
 preserveAspectRatio="xMidYMid meet">
<metadata>
Created by potrace 1.11, written by Peter Selinger 2001-2013
</metadata>
<g transform="translate(0.000000,260.000000) scale(0.100000,-0.100000)"
fill="#000000" stroke="none">
<path d="M550 2140 c0 -5 12 -12 28 -16 117 -26 173 -63 191 -130 7 -26 11
-222 11 -589 0 -538 -7 -690 -33 -744 -17 -36 -83 -78 -147 -94 -134 -34 -81
-37 659 -37 l721 0 5 23 c11 46 75 413 75 430 0 36 -17 13 -66 -91 -80 -167
-182 -255 -341 -296 -187 -49 -511 -36 -582 22 -38 30 -42 111 -39 752 3 644
2 623 52 678 28 32 70 53 130 67 28 6 52 17 54 23 3 9 -83 12 -357 12 -229 0
-361 -4 -361 -10z"/>
</g>
</svg>
